<svg width="48" height="48" viewBox="0 0 48 48" fill="none" xmlns="http://www.w3.org/2000/svg">
<path fill-rule="evenodd" clip-rule="evenodd" d="M6.87359 8.76929H26.8186C28.3207 8.76929 29.5384 10.0016 29.5384 11.5217V14.3077H19.3352C17.8331 14.3077 16.6154 15.54 16.6154 17.0601V27.0554L11.1065 32.0722C10.9143 32.2472 10.6574 32.3309 10.4004 32.3022C9.90274 32.2466 9.54386 31.7932 9.59884 31.2896L10.092 26.8032H6.87359C5.37149 26.8032 4.15381 25.5709 4.15381 24.0508V11.5217C4.15381 10.0016 5.37149 8.76929 6.87359 8.76929Z" fill="white"/>
<path d="M20.7197 15.6923H40.6647C42.1668 15.6923 43.3845 16.9245 43.3845 18.4446V30.9738C43.3845 32.4939 42.1668 33.7262 40.6647 33.7262H37.4463L37.9395 38.2125C37.9945 38.7162 37.6356 39.1695 37.1379 39.2252C36.8809 39.2539 36.624 39.1702 36.4318 38.9952L30.646 33.7262H20.7197C19.2176 33.7262 17.9999 32.4939 17.9999 30.9738V18.4446C17.9999 16.9245 19.2176 15.6923 20.7197 15.6923Z" fill="white"/>
</svg>
