<svg width="19" height="30" viewBox="0 0 19 30" fill="none" xmlns="http://www.w3.org/2000/svg">
<path d="M7.2 20.8C7.2 19.6267 7.45333 18.5333 7.96 17.52C8.46667 16.5067 9.08 15.64 9.8 14.92C10.52 14.2 11.24 13.52 11.96 12.88C12.68 12.2133 13.2933 11.4933 13.8 10.72C14.3067 9.92 14.56 9.08 14.56 8.2C14.56 6.86666 14.0933 5.85333 13.16 5.16C12.2533 4.44 11.0667 4.08 9.6 4.08C6.66667 4.08 4.78667 5.37333 3.96 7.96L0.8 6.2C1.46667 4.33333 2.6 2.92 4.2 1.96C5.8 0.973331 7.61333 0.479998 9.64 0.479998C12.0133 0.479998 14.04 1.14666 15.72 2.48C17.4267 3.81333 18.28 5.66667 18.28 8.04C18.28 9.16 18.0267 10.2133 17.52 11.2C17.0133 12.1867 16.4 13.04 15.68 13.76C14.96 14.48 14.24 15.1867 13.52 15.88C12.8 16.5467 12.1867 17.3067 11.68 18.16C11.1733 18.9867 10.92 19.8667 10.92 20.8H7.2ZM9.04 29.44C8.32 29.44 7.70667 29.1867 7.2 28.68C6.69333 28.1733 6.44 27.56 6.44 26.84C6.44 26.12 6.69333 25.5067 7.2 25C7.70667 24.4933 8.32 24.24 9.04 24.24C9.78667 24.24 10.4 24.4933 10.88 25C11.3867 25.5067 11.64 26.12 11.64 26.84C11.64 27.56 11.3867 28.1733 10.88 28.68C10.4 29.1867 9.78667 29.44 9.04 29.44Z" fill="#CFD4E3"/>
</svg>
