<svg width="16" height="16" viewBox="0 0 16 16" fill="none" xmlns="http://www.w3.org/2000/svg">
<path d="M13.3333 13.8704C13.3054 12.2316 12.7483 10.7416 11.7579 9.66275C10.7732 8.5905 9.43876 8 7.9999 8C6.56104 8 5.22657 8.5905 4.24191 9.66275C3.25242 10.7404 2.69572 12.2284 2.66663 13.8651C3.22614 14.122 5.54149 15.1111 7.9999 15.1111C10.6583 15.1111 12.8144 14.1278 13.3333 13.8704Z" fill="#0066A6"/>
<path d="M8 6.5C9.51878 6.5 10.75 5.26878 10.75 3.75C10.75 2.23122 9.51878 1 8 1C6.48122 1 5.25 2.23122 5.25 3.75C5.25 5.26878 6.48122 6.5 8 6.5Z" fill="#0066A6"/>
</svg>
