<?xml version="1.0" encoding="utf-8"?><svg xmlns="http://www.w3.org/2000/svg" xmlns:xlink="http://www.w3.org/1999/xlink"><symbol viewBox="0 0 9 6" id="accordion-close" xmlns="http://www.w3.org/2000/svg"><path d="M1.43 5.43l3.027-3.028L7.484 5.43l.946-.942L4.457.516.484 4.488l.946.942z"/></symbol><symbol viewBox="0 0 9 6" id="accordion-open" xmlns="http://www.w3.org/2000/svg"><path d="M1.43.516l3.027 3.027L7.484.516l.946.941L4.457 5.43.484 1.457 1.43.516z"/></symbol><symbol viewBox="0 0 18 14" id="burger" xmlns="http://www.w3.org/2000/svg"><path d="M18 0H0v2h18zM18 6H0v2h18zM18 12H0v2h18z"/></symbol><symbol viewBox="0 0 48 48" id="chat" xmlns="http://www.w3.org/2000/svg"><path fill-rule="evenodd" clip-rule="evenodd" d="M6.874 8.77h19.945c1.502 0 2.72 1.232 2.72 2.752v2.786H19.334c-1.502 0-2.72 1.232-2.72 2.752v9.995l-5.508 5.017a.9.9 0 01-.707.23.915.915 0 01-.801-1.012l.493-4.487H6.874c-1.503 0-2.72-1.232-2.72-2.752V11.52c0-1.52 1.217-2.752 2.72-2.752z"/><path d="M20.72 15.692h19.945c1.502 0 2.72 1.232 2.72 2.753v12.529c0 1.52-1.218 2.752-2.72 2.752h-3.219l.494 4.486a.915.915 0 01-.802 1.013.9.9 0 01-.706-.23l-5.786-5.269H20.72c-1.502 0-2.72-1.232-2.72-2.752v-12.53c0-1.52 1.218-2.752 2.72-2.752z"/></symbol><symbol viewBox="0 0 9 6" id="chevron-down" xmlns="http://www.w3.org/2000/svg"><path d="M1.43.516l3.027 3.027L7.484.516l.946.941L4.457 5.43.484 1.457 1.43.516z"/></symbol><symbol viewBox="0 0 18 18" id="close" xmlns="http://www.w3.org/2000/svg"><path d="M0 1.058L1.059.002l16.94 16.894-1.058 1.056z"/><path d="M16.92 0l1.056 1.059L1.083 18 .027 16.941z"/></symbol><symbol viewBox="0 0 32 32" id="close-desktop" xmlns="http://www.w3.org/2000/svg"><g clip-path="url(#gclip0)"><path d="M13.068 16.026L.608 3.566a2.07 2.07 0 010-2.932c.81-.81 2.121-.81 2.932 0L16 13.094 28.46.635c.811-.81 2.121-.81 2.932 0 .81.81.81 2.121 0 2.932l-12.46 12.46 12.46 12.46c.81.811.81 2.122 0 2.932a2.067 2.067 0 01-1.466.608c-.53 0-1.061-.204-1.466-.608L16 18.958 3.54 31.418a2.067 2.067 0 01-1.466.608c-.53 0-1.062-.204-1.466-.608a2.07 2.07 0 010-2.931l12.46-12.46z"/></g><defs><clipPath id="gclip0"><path transform="matrix(-1 0 0 1 32 0)" d="M0 0h32v32H0z"/></clipPath></defs></symbol><symbol viewBox="0 0 19 30" id="faq" xmlns="http://www.w3.org/2000/svg"><path d="M7.2 20.8c0-1.173.253-2.267.76-3.28s1.12-1.88 1.84-2.6c.72-.72 1.44-1.4 2.16-2.04a11.634 11.634 0 001.84-2.16c.507-.8.76-1.64.76-2.52 0-1.333-.467-2.347-1.4-3.04-.907-.72-2.093-1.08-3.56-1.08-2.933 0-4.813 1.293-5.64 3.88L.8 6.2c.667-1.867 1.8-3.28 3.4-4.24C5.8.973 7.613.48 9.64.48c2.373 0 4.4.667 6.08 2 1.707 1.333 2.56 3.187 2.56 5.56a6.82 6.82 0 01-.76 3.16c-.507.987-1.12 1.84-1.84 2.56s-1.44 1.427-2.16 2.12a10.157 10.157 0 00-1.84 2.28 4.968 4.968 0 00-.76 2.64H7.2zm1.84 8.64c-.72 0-1.333-.253-1.84-.76a2.506 2.506 0 01-.76-1.84c0-.72.253-1.333.76-1.84a2.506 2.506 0 011.84-.76c.747 0 1.36.253 1.84.76.507.507.76 1.12.76 1.84s-.253 1.333-.76 1.84c-.48.507-1.093.76-1.84.76z"/></symbol><symbol viewBox="0 0 6 9" id="goback" xmlns="http://www.w3.org/2000/svg"><path d="M5.5 1.875L3.117 4.688 5.5 7.5 3.724 8.75.187 4.687 3.724.625 5.5 1.875z"/></symbol><symbol viewBox="0 0 6 9" id="holders-link" xmlns="http://www.w3.org/2000/svg"><path d="M.188 1.875L2.57 4.688.188 7.5l1.775 1.25L5.5 4.687 1.963.625.187 1.875z"/></symbol><symbol viewBox="0 0 12 11" id="platforma" xmlns="http://www.w3.org/2000/svg"><path d="M11 0H0v11L11 0zM1 11h11V0L1 11z"/></symbol><symbol viewBox="0 0 13 13" id="search" xmlns="http://www.w3.org/2000/svg"><path fill-rule="evenodd" clip-rule="evenodd" d="M2 5.293C2 3.467 3.467 2 5.262 2c1.794 0 3.262 1.467 3.262 3.293 0 1.825-1.468 3.292-3.262 3.292C3.467 8.585 2 7.118 2 5.293zM5.262 0C2.349 0 0 2.376 0 5.293c0 2.916 2.35 5.292 5.262 5.292a5.216 5.216 0 003.173-1.07l2.28 2.297a.77.77 0 001.095 0 .785.785 0 000-1.104L9.52 8.402a5.292 5.292 0 001.004-3.11C10.524 2.377 8.174 0 5.262 0z"/></symbol><symbol viewBox="0 0 53 53" id="search-desktop" xmlns="http://www.w3.org/2000/svg"><path fill-rule="evenodd" clip-rule="evenodd" d="M6 21.896C6 13.096 13.076 6 21.76 6c8.682 0 15.759 7.096 15.759 15.896s-7.077 15.896-15.76 15.896S6 30.695 6 21.896zM21.76 0C9.72 0 0 9.824 0 21.896c0 12.072 9.721 21.896 21.76 21.896 4.863 0 9.349-1.604 12.968-4.312l12.739 12.832a.991.991 0 001.409 0l3.414-3.44c.39-.392.39-1.027 0-1.42l-12.787-12.88a21.896 21.896 0 004.016-12.676C43.519 9.824 33.797 0 21.759 0z"/></symbol><symbol viewBox="0 0 13 9" id="selector" xmlns="http://www.w3.org/2000/svg"><path d="M11.83 1.585L6.416 7 1 1.585"/></symbol><symbol viewBox="0 0 16 16" id="user" xmlns="http://www.w3.org/2000/svg"><path d="M13.333 13.87c-.028-1.638-.585-3.128-1.575-4.207A5.053 5.053 0 008 8c-1.439 0-2.773.59-3.758 1.663-.99 1.077-1.546 2.565-1.575 4.202.56.257 2.874 1.246 5.333 1.246 2.658 0 4.814-.983 5.333-1.24zM8 6.5A2.75 2.75 0 108 1a2.75 2.75 0 000 5.5z"/></symbol><symbol viewBox="0 0 16 16" id="user-mobile" xmlns="http://www.w3.org/2000/svg"><path d="M13.333 13.87c-.028-1.638-.585-3.128-1.575-4.207A5.053 5.053 0 008 8c-1.439 0-2.773.59-3.758 1.663-.99 1.077-1.546 2.565-1.575 4.202.56.257 2.874 1.246 5.333 1.246 2.658 0 4.814-.983 5.333-1.24zM8 6.5A2.75 2.75 0 108 1a2.75 2.75 0 000 5.5z"/></symbol></svg>